<svg height="368pt" viewBox="0 0 368 368" width="368pt" xmlns="http://www.w3.org/2000/svg"><path d="m216 304h-64c-4.425781 0-8 3.574219-8 8s3.574219 8 8 8h64c4.425781 0 8-3.574219 8-8s-3.574219-8-8-8zm0 0"/><path d="m88 304h-24v-24c0-4.425781-3.574219-8-8-8s-8 3.574219-8 8v32c0 4.425781 3.574219 8 8 8h32c4.425781 0 8-3.574219 8-8s-3.574219-8-8-8zm0 0"/><path d="m312 272c-4.425781 0-8 3.574219-8 8v24h-24c-4.425781 0-8 3.574219-8 8s3.574219 8 8 8h32c4.425781 0 8-3.574219 8-8v-32c0-4.425781-3.574219-8-8-8zm0 0"/><path d="m56 240c4.425781 0 8-3.574219 8-8v-32c0-4.425781-3.574219-8-8-8s-8 3.574219-8 8v32c0 4.425781 3.574219 8 8 8zm0 0"/><path d="m312 192c-4.425781 0-8 3.574219-8 8v32c0 4.425781 3.574219 8 8 8s8-3.574219 8-8v-32c0-4.425781-3.574219-8-8-8zm0 0"/><path d="m184 112c13.230469 0 24-10.769531 24-24s-10.769531-24-24-24-24 10.769531-24 24 10.769531 24 24 24zm0-32c4.414062 0 8 3.585938 8 8s-3.585938 8-8 8-8-3.585938-8-8 3.585938-8 8-8zm0 0"/><path d="m328 0h-288.007812c-22.054688 0-39.992188 17.945312-39.992188 40v288c0 22.054688 17.945312 40 40 40h287.992188c22.0625 0 40.007812-17.945312 40.007812-40v-288c0-22.054688-17.945312-40-40-40zm-288.007812 16h288.007812c13.230469 0 24 10.769531 24 24v11.929688l-168 122.183593-168-122.183593v-11.929688c0-13.230469 10.769531-24 23.992188-24zm288 336h-287.992188c-13.230469 0-24-10.769531-24-24v-256.296875l32 23.273437v57.023438c0 4.425781 3.574219 8 8 8s8-3.574219 8-8v-45.382812l115.296875 83.855468c1.398437 1.023438 3.054687 1.527344 4.703125 1.527344s3.304688-.503906 4.703125-1.527344l115.296875-83.855468v45.382812c0 4.425781 3.574219 8 8 8s8-3.574219 8-8v-57.023438l32-23.273437v256.296875c0 13.230469-10.777344 24-24.007812 24zm0 0"/></svg>